<?xml version="1.0" encoding="UTF-8" standalone="no"?>
<!-- Created with Inkscape (http://www.inkscape.org/) -->

<svg
   width="132.29167mm"
   height="79.375mm"
   viewBox="0 0 132.29166 79.375002"
   version="1.1"
   id="svg5"
   inkscape:version="1.1.2 (76b9e6a115, 2022-02-25)"
   sodipodi:docname="cv_white.svg"
   xmlns:inkscape="http://www.inkscape.org/namespaces/inkscape"
   xmlns:sodipodi="http://sodipodi.sourceforge.net/DTD/sodipodi-0.dtd"
   xmlns="http://www.w3.org/2000/svg"
   xmlns:svg="http://www.w3.org/2000/svg">
  <sodipodi:namedview
     id="namedview7"
     pagecolor="#ffffff"
     bordercolor="#666666"
     borderopacity="1.0"
     inkscape:pageshadow="2"
     inkscape:pageopacity="0.0"
     inkscape:pagecheckerboard="0"
     inkscape:document-units="mm"
     showgrid="false"
     units="mm"
     width="500px"
     showguides="true"
     inkscape:guide-bbox="true"
     inkscape:zoom="1.9754548"
     inkscape:cx="52.899212"
     inkscape:cy="170.84674"
     inkscape:window-width="1920"
     inkscape:window-height="956"
     inkscape:window-x="1200"
     inkscape:window-y="27"
     inkscape:window-maximized="1"
     inkscape:current-layer="layer1">
    <sodipodi:guide
       position="0,25.96046"
       orientation="1,0"
       id="guide34703" />
    <sodipodi:guide
       position="132.21045,-6.6186226"
       orientation="1,0"
       id="guide34705" />
    <sodipodi:guide
       position="-27.858563,39.375"
       orientation="0,1"
       id="guide34881"
       inkscape:label=""
       inkscape:locked="false"
       inkscape:color="rgb(0,0,255)" />
  </sodipodi:namedview>
  <defs
     id="defs2" />
  <g
     inkscape:label="Layer 1"
     inkscape:groupmode="layer"
     id="layer1">
    <g
       aria-label="Curriculum 
Vitae"
       id="text4670"
       style="font-size:19.7556px;line-height:0.85;font-family:Carlito;-inkscape-font-specification:Carlito;letter-spacing:-0.396875px;fill:#fff6d5;fill-opacity:1;stroke:#000000;stroke-width:0;stroke-miterlimit:4;stroke-dasharray:none;stroke-opacity:1"
       transform="matrix(1.1574197,0,0,1.1574197,-10.607858,4.2922487)">
      <path
         d="m 12.801743,22.727973 q 0,2.170415 0.67524,3.347263 0.675241,1.176847 2.016075,1.176847 1.562699,0 2.315109,-2.353695 l 2.633437,0.501607 q -1.282956,4.090027 -4.977485,4.090027 -2.710607,0 -4.138258,-1.717039 -1.4180047,-1.726686 -1.4180047,-5.04501 0,-6.646293 5.4790927,-6.646293 1.794209,0 2.999995,0.945337 1.215433,0.945336 1.784564,2.80707 l -2.623791,0.636655 q -0.279742,-1.022507 -0.839227,-1.581992 -0.559485,-0.569131 -1.282956,-0.569131 -2.623791,0 -2.623791,4.408354 z"
         style="font-weight:bold;font-family:'Liberation Mono';-inkscape-font-specification:'Liberation Mono, Bold';fill:#fff6d5;fill-opacity:1;stroke:#000000;stroke-width:0;stroke-miterlimit:4;stroke-dasharray:none;stroke-opacity:1"
         id="path34394" />
      <path
         d="m 24.607424,18.859811 v 5.855298 q 0,1.331188 0.424436,2.045013 0.434083,0.704179 1.234725,0.704179 0.868166,0 1.427651,-0.848873 0.569131,-0.85852 0.569131,-2.160769 v -5.594848 h 2.710607 v 8.102883 q 0,1.331188 0.07717,2.334402 h -2.585206 q -0.115755,-1.389065 -0.115755,-2.073952 h -0.04823 q -1.032153,2.266878 -3.163983,2.266878 -1.581991,0 -2.411572,-1.003214 -0.829581,-1.01286 -0.829581,-2.999996 v -6.627001 z"
         style="font-weight:bold;font-family:'Liberation Mono';-inkscape-font-specification:'Liberation Mono, Bold';fill:#fff6d5;fill-opacity:1;stroke:#000000;stroke-width:0;stroke-miterlimit:4;stroke-dasharray:none;stroke-opacity:1"
         id="path34396" />
      <path
         d="m 42.48062,21.117043 q -1.080385,-0.183279 -2.045013,-0.183279 -1.504822,0 -2.39228,1.138262 -0.877812,1.138262 -0.877812,2.999996 v 4.225074 h -2.700961 v -6.762048 q 0,-0.733118 -0.135048,-1.726686 -0.125402,-0.993568 -0.366559,-1.948551 h 2.614144 q 0.347266,1.254018 0.443729,2.199354 h 0.03858 q 0.482315,-1.311895 1.302249,-1.852087 0.819935,-0.540192 2.13183,-0.540192 1.003214,0 1.987136,0.163987 z"
         style="font-weight:bold;font-family:'Liberation Mono';-inkscape-font-specification:'Liberation Mono, Bold';fill:#fff6d5;fill-opacity:1;stroke:#000000;stroke-width:0;stroke-miterlimit:4;stroke-dasharray:none;stroke-opacity:1"
         id="path34398" />
      <path
         d="m 53.939036,21.117043 q -1.080385,-0.183279 -2.045013,-0.183279 -1.504822,0 -2.39228,1.138262 -0.877812,1.138262 -0.877812,2.999996 v 4.225074 H 45.92297 v -6.762048 q 0,-0.733118 -0.135048,-1.726686 -0.125402,-0.993568 -0.366559,-1.948551 h 2.614144 q 0.347266,1.254018 0.443729,2.199354 h 0.03858 q 0.482315,-1.311895 1.302249,-1.852087 0.819935,-0.540192 2.13183,-0.540192 1.003214,0 1.987136,0.163987 z"
         style="font-weight:bold;font-family:'Liberation Mono';-inkscape-font-specification:'Liberation Mono, Bold';fill:#fff6d5;fill-opacity:1;stroke:#000000;stroke-width:0;stroke-miterlimit:4;stroke-dasharray:none;stroke-opacity:1"
         id="path34400" />
      <path
         d="m 62.628963,27.464301 h 3.40514 v 1.832795 h -9.926031 v -1.832795 h 3.810284 v -6.771695 h -2.797424 v -1.832795 h 5.508031 z M 59.918356,16.978785 v -1.996782 h 2.710607 v 1.996782 z"
         style="font-weight:bold;font-family:'Liberation Mono';-inkscape-font-specification:'Liberation Mono, Bold';fill:#fff6d5;fill-opacity:1;stroke:#000000;stroke-width:0;stroke-miterlimit:4;stroke-dasharray:none;stroke-opacity:1"
         id="path34402" />
      <path
         d="m 72.44751,29.490022 q -2.372987,0 -3.66559,-1.408358 -1.292603,-1.418005 -1.292603,-3.945332 0,-2.585206 1.302249,-4.022503 1.302249,-1.446943 3.694529,-1.446943 1.842441,0 3.048227,0.926043 1.205787,0.926044 1.514468,2.556267 l -2.7299,0.135048 q -0.115756,-0.800642 -0.578777,-1.27331 -0.463022,-0.482314 -1.311896,-0.482314 -2.093244,0 -2.093244,3.501602 0,3.607713 2.131829,3.607713 0.771704,0 1.292603,-0.482315 0.5209,-0.491961 0.646302,-1.45659 l 2.720253,0.125402 q -0.144694,1.070738 -0.771703,1.909965 -0.617363,0.839228 -1.630223,1.302249 -1.01286,0.453376 -2.276524,0.453376 z"
         style="font-weight:bold;font-family:'Liberation Mono';-inkscape-font-specification:'Liberation Mono, Bold';fill:#fff6d5;fill-opacity:1;stroke:#000000;stroke-width:0;stroke-miterlimit:4;stroke-dasharray:none;stroke-opacity:1"
         id="path34404" />
      <path
         d="m 81.899498,18.859811 v 5.855298 q 0,1.331188 0.424436,2.045013 0.434083,0.704179 1.234725,0.704179 0.868166,0 1.427651,-0.848873 0.569131,-0.85852 0.569131,-2.160769 v -5.594848 h 2.710608 v 8.102883 q 0,1.331188 0.07717,2.334402 h -2.585206 q -0.115755,-1.389065 -0.115755,-2.073952 h -0.04823 q -1.032152,2.266878 -3.163982,2.266878 -1.581992,0 -2.411573,-1.003214 -0.82958,-1.01286 -0.82958,-2.999996 v -6.627001 z"
         style="font-weight:bold;font-family:'Liberation Mono';-inkscape-font-specification:'Liberation Mono, Bold';fill:#fff6d5;fill-opacity:1;stroke:#000000;stroke-width:0;stroke-miterlimit:4;stroke-dasharray:none;stroke-opacity:1"
         id="path34406" />
      <path
         d="m 98.316102,27.445009 2.093248,0.01929 v 1.832795 l -3.366558,-0.04823 Q 96.08781,29.084878 95.200351,28.399991 94.785561,28.081664 94.534757,27.309961 94.312893,26.654013 94.2936,25.670092 v -8.855294 h -2.797424 v -1.832795 h 5.508031 v 10.99677 q 0.01929,0.829581 0.221865,1.061092 0.26045,0.299035 1.09003,0.405144 z m 0.05788,0.01929 z m -1.369773,-1.485528 z m 0.08682,3.318323 z M 94.2936,25.670092 Z"
         style="font-weight:bold;font-family:'Liberation Mono';-inkscape-font-specification:'Liberation Mono, Bold';fill:#fff6d5;fill-opacity:1;stroke:#000000;stroke-width:0;stroke-miterlimit:4;stroke-dasharray:none;stroke-opacity:1"
         id="path34408" />
      <path
         d="m 104.81632,18.859811 v 5.855298 q 0,1.331188 0.42444,2.045013 0.43408,0.704179 1.23472,0.704179 0.86817,0 1.42765,-0.848873 0.56914,-0.85852 0.56914,-2.160769 v -5.594848 h 2.7106 v 8.102883 q 0,1.331188 0.0772,2.334402 h -2.5852 q -0.11576,-1.389065 -0.11576,-2.073952 h -0.0482 q -1.03215,2.266878 -3.16398,2.266878 -1.58199,0 -2.41157,-1.003214 -0.82959,-1.01286 -0.82959,-2.999996 v -6.627001 z"
         style="font-weight:bold;font-family:'Liberation Mono';-inkscape-font-specification:'Liberation Mono, Bold';fill:#fff6d5;fill-opacity:1;stroke:#000000;stroke-width:0;stroke-miterlimit:4;stroke-dasharray:none;stroke-opacity:1"
         id="path34410" />
      <path
         d="m 117.09468,29.297096 v -6.347258 q 0,-1.437297 -0.18328,-1.996782 -0.17364,-0.559485 -0.65595,-0.559485 -0.49196,0 -0.78135,0.906752 -0.27974,0.906751 -0.27974,2.382633 v 5.61414 h -2.209 v -8.208992 q 0,-1.823148 -0.0579,-2.228293 h 2.01607 l 0.0579,1.225079 v 0.463022 h 0.0193 q 0.32798,-0.983921 0.82959,-1.427651 0.5016,-0.453375 1.25401,-0.453375 0.84888,0 1.26367,0.463022 0.42443,0.463021 0.60771,1.42765 h 0.0193 q 0.38585,-1.022506 0.91639,-1.456589 0.5402,-0.434083 1.36013,-0.434083 1.13826,0 1.63022,0.829581 0.49196,0.82958 0.49196,2.845655 v 6.954974 h -2.19935 v -6.347258 q 0,-1.437297 -0.18328,-1.996782 -0.17363,-0.559485 -0.65595,-0.559485 -0.49196,0 -0.78135,0.78135 -0.27974,0.771703 -0.27974,2.324756 v 5.797419 z"
         style="font-weight:bold;font-family:'Liberation Mono';-inkscape-font-specification:'Liberation Mono, Bold';fill:#fff6d5;fill-opacity:1;stroke:#000000;stroke-width:0;stroke-miterlimit:4;stroke-dasharray:none;stroke-opacity:1"
         id="path34412" />
      <path
         d="M 16.525211,46.126577 H 13.64097 L 9.1650921,33.113733 h 2.9710569 l 2.247585,7.475874 q 0.26045,0.848874 0.713826,2.565913 l 0.202572,-0.82958 0.491961,-1.736333 2.237939,-7.475874 h 2.942118 z"
         style="font-weight:bold;font-family:'Liberation Mono';-inkscape-font-specification:'Liberation Mono, Bold';fill:#fff6d5;fill-opacity:1;stroke:#000000;stroke-width:0;stroke-miterlimit:4;stroke-dasharray:none;stroke-opacity:1"
         id="path34414" />
      <path
         d="m 28.253721,44.293782 h 3.40514 v 1.832795 h -9.926032 v -1.832795 h 3.810285 V 37.522088 H 22.74569 v -1.832795 h 5.508031 z M 25.543114,33.808266 v -1.996782 h 2.710607 v 1.996782 z"
         style="font-weight:bold;font-family:'Liberation Mono';-inkscape-font-specification:'Liberation Mono, Bold';fill:#fff6d5;fill-opacity:1;stroke:#000000;stroke-width:0;stroke-miterlimit:4;stroke-dasharray:none;stroke-opacity:1"
         id="path34416" />
      <path
         d="m 35.216964,37.522088 h -1.61093 v -1.832795 h 1.745978 l 0.848874,-2.720254 h 1.697747 v 2.720254 h 3.713821 v 1.832795 h -3.713821 v 5.112533 q 0,0.848873 0.15434,1.147908 0.163987,0.289389 0.5209,0.463022 0.356912,0.163987 1.003214,0.163987 1.19614,0 2.459804,-0.26045 v 1.79421 q -1.369774,0.221865 -1.938905,0.26045 -0.569131,0.04823 -1.186493,0.04823 -1.225079,0 -2.05466,-0.327974 -0.819934,-0.33762 -1.244371,-1.041799 -0.41479,-0.713825 -0.41479,-1.996782 z"
         style="font-weight:bold;font-family:'Liberation Mono';-inkscape-font-specification:'Liberation Mono, Bold';fill:#fff6d5;fill-opacity:1;stroke:#000000;stroke-width:0;stroke-miterlimit:4;stroke-dasharray:none;stroke-opacity:1"
         id="path34418" />
      <path
         d="m 47.746118,46.319503 q -1.514467,0 -2.363341,-0.819934 -0.848873,-0.829581 -0.848873,-2.324756 0,-1.620577 1.003214,-2.459804 1.01286,-0.848873 3.019289,-0.877812 l 2.151122,-0.03859 v -0.530546 q 0,-0.993568 -0.33762,-1.504821 -0.33762,-0.511254 -1.090031,-0.511254 -0.704179,0 -1.041799,0.356913 -0.327974,0.347267 -0.405144,1.11897 l -2.826363,-0.135048 q 0.5209,-3.096459 4.389062,-3.096459 1.94855,0 2.980703,0.954982 1.041799,0.954983 1.041799,2.807071 v 3.781345 q 0,0.877812 0.192926,1.215432 0.202572,0.327974 0.665594,0.327974 0.308681,0 0.59807,-0.05788 v 1.466236 q -0.241157,0.05788 -0.434083,0.10611 -0.192926,0.04823 -0.385852,0.07717 -0.192925,0.02894 -0.41479,0.04823 -0.212218,0.01929 -0.501607,0.01929 -1.022507,0 -1.514468,-0.501607 -0.482314,-0.501607 -0.578777,-1.475882 h -0.05788 q -0.607716,1.09003 -1.389065,1.572345 -0.771703,0.482314 -1.852088,0.482314 z m 2.961411,-5.025716 -1.292603,0.01929 q -0.868166,0.01929 -1.263664,0.18328 -0.385851,0.15434 -0.588423,0.511253 -0.202572,0.347266 -0.202572,0.954983 0,1.466236 1.157554,1.466236 0.93569,0 1.562699,-0.733118 0.627009,-0.742765 0.627009,-1.871381 z"
         style="font-weight:bold;font-family:'Liberation Mono';-inkscape-font-specification:'Liberation Mono, Bold';fill:#fff6d5;fill-opacity:1;stroke:#000000;stroke-width:0;stroke-miterlimit:4;stroke-dasharray:none;stroke-opacity:1"
         id="path34420" />
      <path
         d="m 61.008386,46.319503 q -2.430864,0 -3.752406,-1.427651 -1.321542,-1.437297 -1.321542,-4.032148 0,-1.736332 0.617363,-2.932472 0.627009,-1.19614 1.774917,-1.813503 1.147909,-0.617362 2.720254,-0.617362 2.28617,0 3.549834,1.524114 1.263664,1.524113 1.263664,4.331183 v 0.07717 h -7.080376 q 0,1.418004 0.627008,2.247585 0.636656,0.829581 1.736333,0.829581 0.713825,0 1.263663,-0.299035 0.549839,-0.308681 0.742765,-0.945336 l 2.556266,0.221864 q -0.530546,1.360127 -1.765271,2.102891 -1.234725,0.733118 -2.932472,0.733119 z m 0,-9.115743 q -0.993567,0 -1.581991,0.67524 -0.588424,0.665594 -0.627009,1.852088 h 4.437293 Q 63.169155,38.573533 62.571085,37.888647 61.982662,37.20376 61.008386,37.20376 Z"
         style="font-weight:bold;font-family:'Liberation Mono';-inkscape-font-specification:'Liberation Mono, Bold';fill:#fff6d5;fill-opacity:1;stroke:#000000;stroke-width:0;stroke-miterlimit:4;stroke-dasharray:none;stroke-opacity:1"
         id="path34422" />
    </g>
  </g>
</svg>
