<?xml version="1.0" encoding="UTF-8" standalone="no"?>
<!-- Created with Inkscape (http://www.inkscape.org/) -->

<svg
   width="500.00003"
   height="90"
   viewBox="0 0 132.29166 23.812501"
   version="1.1"
   id="svg5"
   inkscape:version="1.1.2 (76b9e6a115, 2022-02-25)"
   sodipodi:docname="rireki_white.svg"
   xmlns:inkscape="http://www.inkscape.org/namespaces/inkscape"
   xmlns:sodipodi="http://sodipodi.sourceforge.net/DTD/sodipodi-0.dtd"
   xmlns="http://www.w3.org/2000/svg"
   xmlns:svg="http://www.w3.org/2000/svg">
  <sodipodi:namedview
     id="namedview7"
     pagecolor="#ffffff"
     bordercolor="#666666"
     borderopacity="1.0"
     inkscape:pageshadow="2"
     inkscape:pageopacity="0.0"
     inkscape:pagecheckerboard="0"
     inkscape:document-units="mm"
     showgrid="false"
     units="px"
     width="500px"
     showguides="true"
     inkscape:guide-bbox="true"
     inkscape:zoom="1.9754548"
     inkscape:cx="99.470767"
     inkscape:cy="170.84674"
     inkscape:window-width="1920"
     inkscape:window-height="956"
     inkscape:window-x="1200"
     inkscape:window-y="27"
     inkscape:window-maximized="1"
     inkscape:current-layer="layer1">
    <sodipodi:guide
       position="0,25.96046"
       orientation="1,0"
       id="guide34703" />
    <sodipodi:guide
       position="132.21045,-6.6186226"
       orientation="1,0"
       id="guide34705" />
    <sodipodi:guide
       position="-27.858563,39.375"
       orientation="0,1"
       id="guide34881"
       inkscape:label=""
       inkscape:locked="false"
       inkscape:color="rgb(0,0,255)" />
    <sodipodi:guide
       position="39.778811,64.374997"
       orientation="0,1"
       id="guide35061"
       inkscape:label=""
       inkscape:locked="false"
       inkscape:color="rgb(0,0,255)" />
    <sodipodi:guide
       position="26.054048,14.374999"
       orientation="0,1"
       id="guide35063"
       inkscape:label=""
       inkscape:locked="false"
       inkscape:color="rgb(0,0,255)" />
  </sodipodi:namedview>
  <defs
     id="defs2" />
  <g
     inkscape:label="Layer 1"
     inkscape:groupmode="layer"
     id="layer1">
    <g
       aria-label="履歴書"
       id="text38037"
       style="font-size:25.4px;line-height:1.25;font-family:Carlito;-inkscape-font-specification:Carlito;fill:#ffd5d5;stroke-width:0.264583"
       transform="translate(-0.29306231,-25.31266)">
      <path
         d="m 16.048535,40.936911 q -0.446484,0.719336 -0.781347,1.128613 h 5.333007 l 0.682129,0.731739 q -1.265039,1.525488 -3.12539,2.889746 2.182812,0.855761 5.519043,1.32705 l -0.992188,1.525489 q -3.398242,-0.620117 -5.940722,-1.934766 l -0.310059,0.173633 q -2.666504,1.475879 -6.201172,2.108398 L 9.3760745,47.497751 q 3.4354495,-0.458887 5.9159175,-1.674317 -1.103808,-0.632519 -2.232422,-1.599902 -1.277441,0.967383 -2.54248,1.599902 L 9.4504885,44.620407 Q 12.47666,43.318161 14.250195,40.936911 h -2.616894 v -5.146972 q -0.272852,0.310058 -1.116211,1.11621 L 9.4008791,35.765134 Q 11.385254,34.090817 12.47666,31.573142 l 1.550293,0.483691 -0.409277,0.806152 h 9.016504 v 1.351856 h -9.810254 q -0.21084,0.334863 -0.731738,1.016992 h 9.115722 v 5.705078 z m -2.91455,-4.464844 v 1.016993 h 6.548437 v -1.016993 z m 0,2.207618 v 1.016992 h 6.548437 v -1.016992 z m 3.559472,6.349999 q 1.289844,-0.818554 2.095996,-1.699121 h -4.638476 q 1.116211,0.979786 2.54248,1.699121 z m -8.235156,-5.50664 v 9.165332 H 6.9080081 V 41.24697 Q 6.1886722,41.966306 5.2336917,42.698044 L 4.2911136,41.346188 Q 7.156055,39.250192 8.7187503,36.397653 l 1.3146487,0.855762 Q 9.3512698,38.382028 8.458301,39.523044 Z M 21.914844,26.897458 v 4.576465 H 4.415137 v 4.440039 q 0,8.408789 -2.4804687,12.811621 L 0.50839881,47.348923 Q 1.9718754,44.806442 2.3811527,41.656247 2.6664066,39.547849 2.6664066,36.447263 v -9.549805 z m -1.723926,1.37666 H 4.415137 v 1.84795 H 20.190918 Z M 4.5267581,36.124802 Q 7.230469,34.227243 8.458301,31.796384 l 1.4262695,0.744141 Q 8.1110354,35.554294 5.4817386,37.43945 Z"
         id="path41215"
         style="fill:#ffd5d5" />
      <path
         d="m 33.858301,35.256638 q -1.240235,2.530078 -3.075782,4.241601 l -1.091406,-1.339453 q 2.368848,-1.885156 3.75791,-4.700488 h -2.96416 v -1.475879 h 3.373438 v -2.54248 h 1.599902 v 2.54248 h 2.976562 v 1.475879 h -2.976562 v 0.892969 q 1.761133,0.917773 3.026172,1.922363 l -0.917774,1.401465 q -1.079004,-1.091406 -2.108398,-1.934766 v 4.291211 h -1.599902 z m 10.26914,-1.79834 0.07441,0.148828 q 1.624707,2.517676 4.34082,4.216797 l -1.041796,1.475879 q -2.344043,-1.699121 -3.832325,-4.34082 v 5.097363 h -1.599902 v -5.022949 q -1.141016,2.728515 -3.187402,4.489648 L 37.814648,38.28281 q 2.294434,-1.79834 3.795117,-4.824512 h -2.54248 v -1.475879 h 3.001367 v -2.54248 h 1.599902 v 2.54248 h 3.906739 v 1.475879 z m -3.894336,12.799218 h 8.160742 v 1.575098 h -19.00039 v -1.575098 h 3.906738 v -5.035351 h 1.748731 v 5.035351 h 3.435449 v -6.474023 h 1.74873 v 2.095996 h 6.201172 v 1.500684 H 40.233105 Z M 29.616699,28.7082 v 7.168555 q 0,4.911328 -0.483691,7.590234 -0.496094,2.703711 -1.897559,5.258594 l -1.451074,-1.37666 q 1.389062,-2.368848 1.773535,-5.581055 0.260449,-2.033984 0.260449,-5.692676 V 27.157907 H 48.009375 V 28.7082 Z"
         id="path41217"
         style="fill:#ffd5d5" />
      <path
         d="m 61.800781,27.505173 v -1.674316 h 1.74873 v 1.674316 h 7.032129 v 2.691309 h 3.33623 v 1.37666 h -3.33623 v 2.778125 h -7.032129 v 1.339453 h 8.743652 v 1.401465 h -8.743652 v 1.314648 h 10.641211 v 1.401465 H 51.333203 V 38.406833 H 61.800781 V 37.092185 H 53.243164 V 35.69072 h 8.557617 v -1.339453 h -7.267774 v -1.351856 h 7.267774 V 31.573142 H 51.58125 v -1.37666 h 10.219531 v -1.339454 h -7.267774 v -1.351855 z m 7.032129,1.351855 h -5.283399 v 1.339454 h 5.283399 z m 0,2.716114 h -5.283399 v 1.426269 h 5.283399 z m 2.083593,9.363769 v 7.751465 h -1.79834 v -0.880567 h -12.81162 v 0.880567 h -1.79834 v -7.751465 z m -14.60996,1.351856 v 1.351855 h 12.81162 v -1.351855 z m 0,2.641699 v 1.451074 h 12.81162 v -1.451074 z"
         id="path41219"
         style="fill:#ffd5d5" />
    </g>
  </g>
</svg>
