<?xml version="1.0" encoding="UTF-8" standalone="no"?>
<!-- Created with Inkscape (http://www.inkscape.org/) -->

<svg
   width="500"
   height="90"
   viewBox="0 0 132.29166 23.812501"
   version="1.1"
   id="svg82499"
   inkscape:version="1.1.2 (76b9e6a115, 2022-02-25)"
   sodipodi:docname="shokumu_color.svg"
   xmlns:inkscape="http://www.inkscape.org/namespaces/inkscape"
   xmlns:sodipodi="http://sodipodi.sourceforge.net/DTD/sodipodi-0.dtd"
   xmlns="http://www.w3.org/2000/svg"
   xmlns:svg="http://www.w3.org/2000/svg">
  <sodipodi:namedview
     id="namedview82501"
     pagecolor="#ffffff"
     bordercolor="#666666"
     borderopacity="1.0"
     inkscape:pageshadow="2"
     inkscape:pageopacity="0.0"
     inkscape:pagecheckerboard="0"
     inkscape:document-units="mm"
     showgrid="false"
     units="px"
     showguides="true"
     inkscape:guide-bbox="true"
     inkscape:zoom="1.3968575"
     inkscape:cx="219.42109"
     inkscape:cy="103.44649"
     inkscape:window-width="1920"
     inkscape:window-height="956"
     inkscape:window-x="1200"
     inkscape:window-y="27"
     inkscape:window-maximized="1"
     inkscape:current-layer="layer1" />
  <defs
     id="defs82496" />
  <g
     inkscape:label="Layer 1"
     inkscape:groupmode="layer"
     id="layer1">
    <g
       aria-label="職務経歴書"
       id="text87237"
       style="font-size:14.1111px;line-height:1.25;font-family:Carlito;-inkscape-font-specification:Carlito;stroke:#000000;stroke-width:0;stroke-miterlimit:4;stroke-dasharray:none;stroke-opacity:1;fill:#ececec"
       transform="matrix(1.3972279,0,0,1.3972279,-34.821258,-41.495884)">
      <path
         d="m 35.29127,36.022085 h 1.900653 v -0.168199 q -0.01682,-0.555058 -0.01682,-1.749273 v -3.254657 h 1.084886 v 3.136917 q 0,0.983967 0.01682,1.934293 h 3.078048 v 1.000786 h -3.061228 q 0.05046,2.3632 0.24389,3.683565 0.622336,-1.278315 1.084885,-2.808929 l 0.992376,0.479369 q -0.849406,2.295921 -1.749273,3.876993 0.327988,1.110116 0.925096,1.959523 0.252299,0.378448 0.361628,0.378448 0.227069,0 0.412089,-2.5314 l 0.958737,0.655978 q -0.277529,3.422856 -1.152166,3.422856 -0.437318,0 -1.168986,-0.807357 -0.622336,-0.706437 -1.059655,-1.942701 -1.286724,1.774502 -3.103277,3.128507 l -0.756897,-0.840997 q 2.136131,-1.547434 3.481726,-3.582646 -0.462549,-2.018392 -0.538238,-4.97029 H 30.47236 v 9.242553 h -1.051245 v -3.582646 q -1.665174,0.580288 -3.683566,1.118526 L 25.392741,42.56504 q 0.706436,-0.12615 1.168984,-0.227069 v -9.671462 h -0.824176 v -1.051246 h 5.701957 v 0.975556 h 1.858602 v -1.841782 h 1.101706 v 1.841782 h 2.237051 v 0.983966 h -0.655978 q -0.353217,1.572664 -0.689617,2.4473 z m -0.958736,0 q 0.336399,-1.034426 0.597108,-2.4473 h -2.220231 q 0.285938,0.925097 0.538238,2.4473 z m -2.102491,0 q -0.260709,-1.589483 -0.529828,-2.4473 H 31.077877 V 32.666509 H 30.47236 v 3.355576 z m -2.808928,-3.355576 h -1.858604 v 2.304331 h 1.858604 z m 0,3.305117 h -1.858604 v 2.304331 h 1.858604 z m 0,3.305116 h -1.858604 v 2.842569 q 0.605518,-0.15138 1.858604,-0.504598 z m 6.753202,-1.168985 v 5.491707 h -3.616285 v 0.874638 h -1.000786 v -6.366345 z m -3.616285,0.916686 v 1.337185 h 2.598679 v -1.337185 z m 0,2.211821 v 1.446514 h 2.598679 v -1.446514 z m 7.5101,-6.114045 Q 39.462613,33.314076 38.806637,32.22919 l 0.950326,-0.462548 q 0.857816,1.488565 1.295134,2.758469 z"
         id="path89925"
         style="fill:#ececec;stroke:#00eaec;stroke-width:0;stroke-miterlimit:4;stroke-dasharray:none;stroke-opacity:0.276997" />
      <path
         d="m 54.247334,41.034426 q -0.285939,3.624695 -4.356363,5.306688 l -0.849406,-1.000786 q 3.574236,-1.219445 4.036784,-4.221803 h -3.170557 v -1.051246 h 3.221017 v -1.791322 h 1.152164 V 40 H 57.7627 q -0.05887,3.902224 -0.378449,5.029159 -0.285939,1.000786 -1.606304,1.000786 -0.807357,0 -1.925881,-0.12615 L 53.658637,44.68435 q 0.849405,0.227069 1.791322,0.227069 0.748487,0 0.883047,-0.723257 0.193429,-0.883046 0.269119,-3.153736 z m -0.807357,-4.600252 q -1.009196,-0.874637 -1.656763,-1.841782 -0.546648,0.908276 -1.236265,1.673582 l -0.756897,-0.832586 q 1.757683,-2.043622 2.37161,-4.684351 l 1.101706,0.294348 q -0.218659,0.824177 -0.462548,1.463335 h 5.289868 v 1.034425 h -1.328774 q -0.479369,1.496974 -1.648353,2.825749 1.429693,0.874637 3.439676,1.362415 l -0.655978,1.017605 q -2.085672,-0.723257 -3.565826,-1.656762 -1.488563,1.227854 -3.734024,1.942702 l -0.622338,-0.958737 q 2.178181,-0.622337 3.464906,-1.639943 z m 0.756897,-0.706437 q 0.958737,-1.068066 1.396054,-2.186592 h -3.237836 l -0.01682,0.05046 -0.03364,0.05046 q 0.756896,1.177395 1.892242,2.085672 z m -8.014698,4.339542 Q 45.147751,42.4473 43.465758,44.078833 L 42.8266,43.044407 q 2.220231,-2.060441 3.221018,-4.86937 h -2.893029 v -1.051246 h 6.299065 l 0.546647,0.513008 q -0.487778,2.035212 -1.253085,3.582646 L 47.76325,40.706437 q 0.546647,-1.135346 0.983966,-2.5314 h -1.446514 v 6.921401 q 0,1.202626 -1.328775,1.202626 -0.664387,0 -1.597893,-0.151379 l -0.15138,-1.185806 q 0.798947,0.20184 1.421285,0.20184 0.538237,0 0.538237,-0.613928 z m 0.950326,-4.79368 q 0.18502,0.210248 0.790538,0.950326 l -0.933507,0.756896 q -1.101705,-1.597893 -2.480939,-2.775288 l 0.849405,-0.613928 q 0.538238,0.437318 1.084886,0.975556 1.101706,-1.026016 1.824964,-1.959521 h -4.617072 v -1.051246 h 5.651496 l 0.647569,0.689617 q -1.185807,1.555843 -2.81734,3.027588 z"
         id="path89927"
         style="fill:#ececec;stroke:#000000;stroke-width:0;stroke-miterlimit:4;stroke-dasharray:none;stroke-opacity:1" />
      <path
         d="m 62.833909,36.829442 q -0.992376,-1.471744 -2.346381,-2.825748 l 0.815767,-0.849407 q 0.15138,0.17661 0.361629,0.412089 0.19343,0.210249 0.235478,0.260709 1.051247,-1.496974 1.740864,-3.094869 l 1.168986,0.563469 q -1.278316,2.169771 -2.253872,3.330346 0.513008,0.647568 0.933507,1.253085 0.849406,-1.286724 1.824962,-3.103278 l 1.084886,0.605518 q -1.774503,2.909848 -3.363986,4.78527 0.445727,-0.0084 2.607089,-0.168198 Q 65.356899,37.24994 64.9364,36.450994 l 0.899867,-0.437318 q 0.765307,1.261495 1.236265,2.674369 1.707223,-0.815767 3.347167,-2.237051 -1.463335,-1.438104 -2.5314,-3.448087 h -0.950326 v -1.084884 h 7.081191 l 0.630748,0.622336 q -1.000786,2.009983 -2.6155,3.801305 1.690403,1.168986 3.742435,1.858602 l -0.740078,1.177396 q -2.24546,-0.933506 -3.809714,-2.203411 -1.681993,1.555844 -3.717205,2.649139 l -0.555058,-0.773717 -0.807356,0.428908 q -0.07569,-0.277529 -0.159789,-0.529827 l -0.03364,-0.109327 q -0.773717,0.12615 -1.572664,0.24389 v 7.18211 h -1.135345 v -7.04755 l -0.243889,0.01682 q -0.866226,0.09251 -2.43889,0.227069 L 60.218411,38.27596 q 1.185806,-0.02523 1.614713,-0.05046 0.395269,-0.529828 1.000786,-1.396055 z m 8.376326,-1.160575 q 1.126936,-1.202625 1.858603,-2.66596 h -4.011555 q 0.798948,1.471745 2.152952,2.66596 z m -0.706437,5.08803 v -2.253871 h 1.185806 v 2.253871 H 74.8097 v 1.084885 h -3.120096 v 2.741649 h 3.944274 v 1.084885 h -8.872514 v -1.084885 h 3.742434 V 41.841782 H 67.51826 v -1.084885 z m -10.075139,3.717205 q 0.664388,-1.833374 0.840997,-4.146114 l 1.101705,0.134559 q -0.235479,2.766879 -0.824176,4.650712 z m 5.390788,-0.445729 q -0.327988,-1.951112 -0.950326,-3.666745 l 0.983966,-0.294349 q 0.664387,1.547434 1.068065,3.464906 z"
         id="path89929"
         style="fill:#ececec;stroke:#000000;stroke-width:0;stroke-miterlimit:4;stroke-dasharray:none;stroke-opacity:1" />
      <path
         d="m 82.815989,37.157431 q -0.840995,1.715633 -2.085671,2.876209 l -0.740077,-0.908277 q 1.606303,-1.278315 2.54822,-3.187377 H 80.528479 V 34.9372 h 2.28751 v -1.724043 h 1.084886 V 34.9372 h 2.018392 v 1.000786 h -2.018392 v 0.605518 q 1.194215,0.622336 2.052031,1.303544 l -0.622336,0.950326 q -0.731668,-0.740077 -1.429695,-1.311955 v 2.909849 h -1.084886 z m 6.963453,-1.219445 0.05046,0.100916 q 1.101705,1.707224 2.943488,2.85939 l -0.706437,1.000786 Q 90.477467,38.746912 89.468272,36.95559 v 3.456495 h -1.084886 v -3.406036 q -0.773717,1.850193 -2.161362,3.044408 L 85.498767,39.20946 q 1.555845,-1.219444 2.57345,-3.271477 H 86.348175 V 34.9372 h 2.035212 v -1.724043 h 1.084886 V 34.9372 h 2.649138 v 1.000786 z m -2.640729,8.679085 h 5.533757 v 1.068065 H 79.788401 v -1.068065 h 2.64914 v -3.414447 h 1.185805 v 3.414447 h 2.32956 v -4.390002 h 1.185807 v 1.421283 h 4.204982 v 1.017607 H 87.138713 Z M 79.939782,32.716969 v 4.86096 q 0,3.330347 -0.32799,5.146899 -0.336398,1.833374 -1.286724,3.565826 l -0.983967,-0.933506 q 0.941917,-1.606303 1.202626,-3.784485 0.176609,-1.379235 0.176609,-3.860175 v -6.046765 h 13.691425 v 1.051246 z"
         id="path89931"
         style="fill:#ececec;stroke:#000000;stroke-width:0;stroke-miterlimit:4;stroke-dasharray:none;stroke-opacity:1" />
      <path
         d="m 101.76364,31.901202 v -1.135345 h 1.18581 v 1.135345 h 4.76845 v 1.824962 h 2.26228 v 0.933507 h -2.26228 v 1.883833 h -4.76845 v 0.908276 h 5.92902 v 0.950326 h -5.92902 v 0.891456 h 7.21575 v 0.950326 H 94.665631 v -0.950326 h 7.098009 V 38.402106 H 95.960765 V 37.45178 h 5.802875 v -0.908276 h -4.928238 v -0.916687 h 4.928238 v -0.967146 h -6.929811 v -0.933507 h 6.929811 v -0.908276 h -4.928238 v -0.916686 z m 4.76845,0.916686 h -3.58264 v 0.908276 h 3.58264 z m 0,1.841783 h -3.58264 v 0.967146 h 3.58264 z m 1.41288,6.349524 v 5.256229 h -1.21945 v -0.597108 h -8.687493 v 0.597108 h -1.219446 v -5.256229 z m -9.906943,0.916686 v 0.916687 h 8.687493 v -0.916687 z m 0,1.791323 v 0.983967 h 8.687493 v -0.983967 z"
         id="path89933"
         style="fill:#ececec;stroke:#000000;stroke-width:0;stroke-miterlimit:4;stroke-dasharray:none;stroke-opacity:1" />
    </g>
  </g>
</svg>
